<?xml version="1.0" encoding="UTF-8" standalone="no"?>
<!-- Created with Inkscape (http://www.inkscape.org/) -->

<svg
   version="1.1"
   id="svg1"
   width="1536"
   height="1536"
   viewBox="0 0 1536 1536"
   sodipodi:docname="NearU Logo - Copy.svg"
   inkscape:version="1.4.3 (0d15f75, 2025-12-25)"
   inkscape:export-filename="NearU Logo copy.png"
   inkscape:export-xdpi="96"
   inkscape:export-ydpi="96"
   xmlns:inkscape="http://www.inkscape.org/namespaces/inkscape"
   xmlns:sodipodi="http://sodipodi.sourceforge.net/DTD/sodipodi-0.dtd"
   xmlns="http://www.w3.org/2000/svg"
   xmlns:svg="http://www.w3.org/2000/svg">
  <defs
     id="defs1">
    <rect
       x="217.78889"
       y="1292.5912"
       width="302.64172"
       height="115.96552"
       id="rect1" />
  </defs>
  <sodipodi:namedview
     id="namedview1"
     pagecolor="#ffffff"
     bordercolor="#000000"
     borderopacity="0.25"
     inkscape:showpageshadow="2"
     inkscape:pageopacity="0.0"
     inkscape:pagecheckerboard="0"
     inkscape:deskcolor="#d1d1d1"
     inkscape:zoom="0.5"
     inkscape:cx="802"
     inkscape:cy="803"
     inkscape:window-width="1920"
     inkscape:window-height="1051"
     inkscape:window-x="-9"
     inkscape:window-y="-9"
     inkscape:window-maximized="1"
     inkscape:current-layer="g1"
     showguides="true"
     inkscape:export-bgcolor="#ffffff00">
    <sodipodi:guide
       position="1006,754"
       orientation="0,-1"
       id="guide2"
       inkscape:locked="false" />
    <sodipodi:guide
       position="772,958"
       orientation="1,0"
       id="guide3"
       inkscape:locked="false" />
  </sodipodi:namedview>
  <g
     inkscape:groupmode="layer"
     inkscape:label="Image"
     id="g1">
    <path
       style="display:inline;fill:#e05638;fill-opacity:1"
       d="m 714.5,1148.3073 c -20.67295,-1.0125 -49.33903,-5.5744 -71,-11.2989 C 551.05603,1112.5775 472.27901,1048.3768 429.06504,962.2511 412.64693,929.5297 401.93959,895.1349 396.29959,857 c -1.53071,-10.34998 -1.73616,-26.85024 -2.05445,-165 -0.25449,-110.46033 -0.037,-155.71221 0.77576,-161.38981 4.71499,-32.93778 26.90879,-64.18744 56.70129,-79.83745 16.40251,-8.61624 30.98273,-12.15106 50.27781,-12.18933 14.2418,-0.0282 20.46924,0.92379 33.5,5.1214 39.30928,12.6627 68.19599,48.39949 73.39144,90.79519 0.75565,6.16614 1.10508,53.23972 1.10976,149.5 0.007,149.82867 -0.0428,148.12266 4.84204,165 5.47182,18.90547 15.34658,35.3017 30.11282,50 22.55851,22.4546 48.41864,33.3898 82.04394,34.693 36.88681,1.4297 65.97778,-8.8539 90.58141,-32.0201 12.27744,-11.5602 18.23591,-19.566 25.43367,-34.1729 11.7304,-23.80526 12.96573,-32.40683 12.99734,-90.5 0.0255,-46.94735 0.5639,-54.80993 5.08759,-74.30359 6.25084,-26.93634 21.86579,-57.90243 41.01517,-81.33737 7.50185,-9.18073 17.71148,-19.5175 45.22499,-45.78813 56.06753,-53.53478 95.22013,-103.54392 118.27473,-151.07091 18.2385,-37.59855 22.0639,-64.08094 14.3907,-99.62366 -8.1078,-37.55539 -31.4047,-71.28847 -64.5205,-93.42329 -25.91738,-17.32337 -52.96427,-25.5743 -83.9851,-25.62053 -54.50566,-0.0812 -103.87226,28.08773 -131.95179,75.29267 -16.85203,28.33022 -24.89095,69.01838 -19.13993,96.87481 6.00856,29.10392 22.5299,62.92116 48.51537,99.30527 18.48851,25.88709 39.27236,50.66038 62.45748,74.44618 l 12.9168,13.25144 -11.41783,11.24856 c -6.27981,6.1867 -15.23113,15.91689 -19.89183,21.62263 l -8.47399,10.37408 -10.80265,-11.37408 C 768.7359,507.40339 726.99985,436.77733 719.9372,370.5 c -2.40597,-22.5781 1.89436,-53.49527 11.26643,-81 14.42882,-42.34506 45.13854,-81.45915 84.62316,-107.78211 47.83886,-31.89243 111.13613,-42.33434 168.49047,-27.79525 77.10904,19.54681 138.38294,83.99371 154.09764,162.07736 7.7519,38.51746 5.3568,70.62967 -7.9569,106.68203 -4.804,13.00871 -18.539,41.22483 -26.4409,54.31797 -30.606,50.71318 -68.5843,96.17222 -124.5739,149.11172 -12.68124,11.99041 -26.01048,25.30794 -29.62053,29.59451 -13.43817,15.95645 -24.31588,35.55043 -29.29222,52.76395 -5.06634,17.52486 -5.52209,23.46717 -5.52643,72.05605 -0.004,45.90923 -0.47353,54.02728 -4.16189,71.97377 -7.41762,36.092 -27.10697,70.2169 -54.84213,95.0507 -23.53353,21.0717 -55.33343,36.5604 -87.5,42.6185 -15.99888,3.0131 -52.55034,3.3082 -67.5,0.5449 -35.7798,-6.6135 -62.21283,-18.545 -87.14455,-39.3359 -26.58313,-22.168 -48.67949,-56.3721 -56.81651,-87.94916 C 551.35799,841.38312 551.7223,852.05832 551.05204,688 550.55728,566.90017 550.16947,535.69736 549.1194,532.5 542.13279,511.22665 523.38555,497 502.33912,497 c -21.78166,0 -38.75895,12.06105 -46.45123,33 L 453.5,536.5 v 148 c 0,160.70258 -0.1082,157.12828 5.59297,184.75962 11.67527,56.58548 42.98032,110.96208 85.78795,149.01298 42.97742,38.2018 91.50035,60.408 150.61908,68.93 14.30843,2.0626 65.1582,1.75 79,-0.4857 60.38404,-9.7528 107.21616,-32.49 151.44386,-73.5266 40.02381,-37.136 69.17826,-89.2745 80.08924,-143.22788 5.7416,-28.39156 5.9467,-32.94117 5.9573,-132.11837 l 0.01,-90.65595 13.1303,-12.84405 c 7.2216,-7.06423 20.3394,-20.49405 29.1506,-29.84405 8.8113,-9.35 16.409,-17.15213 16.884,-17.33807 1.1723,-0.45894 1.0133,216.27884 -0.1767,240.83807 -2.3912,49.35315 -12.4131,89.1044 -32.9576,130.7247 -47.9274,97.0941 -135.15519,163.4609 -242.0306,184.1477 -26.4694,5.1234 -52.46531,6.8569 -81.5,5.4349 z M 922.19286,430.92754 c -30.9241,-4.01483 -56.325,-26.50277 -63.73686,-56.42754 -2.30163,-9.29262 -2.28738,-24.80447 0.0312,-34 6.75465,-26.78871 26.50643,-47.0951 53.20345,-54.69736 10.91158,-3.10719 27.56588,-3.07934 38.75273,0.0648 22.82368,6.41476 41.4102,22.99023 50.02282,44.61034 5.2256,13.11788 6.6191,26.6739 4.097,39.85568 -5.13195,26.82221 -23.91502,48.55604 -49.42155,57.18551 -5.70185,1.92907 -22.36791,4.75731 -25.64168,4.3514 -0.55,-0.0682 -3.83821,-0.49247 -7.30714,-0.94284 z"
       id="path4" />
    <path
       style="display:inline;fill:#0f4c81;fill-opacity:1"
       d="m 714.5,1148.3073 c -20.67295,-1.0125 -49.33903,-5.5744 -71,-11.2989 C 551.05603,1112.5775 472.27901,1048.3768 429.06504,962.2511 412.64693,929.5297 401.93959,895.1349 396.29959,857 c -1.53071,-10.34998 -1.73616,-26.85024 -2.05445,-165 -0.25449,-110.46033 -0.037,-155.71221 0.77576,-161.38981 4.71499,-32.93778 26.90879,-64.18744 56.70129,-79.83745 16.40251,-8.61624 30.98273,-12.15106 50.27781,-12.18933 14.2418,-0.0282 20.46924,0.92379 33.5,5.1214 39.30928,12.6627 68.19599,48.39949 73.39144,90.79519 0.75565,6.16614 1.10508,53.23972 1.10976,149.5 0.007,149.82867 -0.0428,148.12266 4.84204,165 5.47182,18.90547 15.34658,35.3017 30.11282,50 22.55851,22.4546 48.41864,33.3898 82.04394,34.693 36.88681,1.4297 65.97778,-8.8539 90.58141,-32.0201 12.27744,-11.5602 18.23591,-19.566 25.43367,-34.1729 11.7304,-23.80526 12.96573,-32.40683 12.99734,-90.5 0.0255,-46.94735 0.5639,-54.80993 5.08759,-74.30359 6.25084,-26.93634 21.86579,-57.90243 41.01517,-81.33737 7.50185,-9.18073 17.71148,-19.5175 45.22499,-45.78813 56.06753,-53.53478 95.22013,-103.54392 118.27473,-151.07091 18.2385,-37.59855 22.0639,-64.08094 14.3907,-99.62366 -8.1078,-37.55539 -31.4047,-71.28847 -64.5205,-93.42329 -25.91738,-17.32337 -52.96427,-25.5743 -83.9851,-25.62053 -54.50566,-0.0812 -103.87226,28.08773 -131.95179,75.29267 -16.85203,28.33022 -24.89095,69.01838 -19.13993,96.87481 6.00856,29.10392 22.5299,62.92116 48.51537,99.30527 18.48851,25.88709 39.27236,50.66038 62.45748,74.44618 l 12.9168,13.25144 -11.41783,11.24856 c -6.27981,6.1867 -15.23113,15.91689 -19.89183,21.62263 l -8.47399,10.37408 -10.80265,-11.37408 C 768.7359,507.40339 726.99985,436.77733 719.9372,370.5 c -2.40597,-22.5781 1.89436,-53.49527 11.26643,-81 14.42882,-42.34506 45.13854,-81.45915 84.62316,-107.78211 47.83886,-31.89243 111.13613,-42.33434 168.49047,-27.79525 77.10904,19.54681 138.38294,83.99371 154.09764,162.07736 7.7519,38.51746 5.3568,70.62967 -7.9569,106.68203 -4.804,13.00871 -18.539,41.22483 -26.4409,54.31797 -30.606,50.71318 -68.5843,96.17222 -124.5739,149.11172 -12.68124,11.99041 -26.01048,25.30794 -29.62053,29.59451 -13.43817,15.95645 -24.31588,35.55043 -29.29222,52.76395 -5.06634,17.52486 -5.52209,23.46717 -5.52643,72.05605 -0.004,45.90923 -0.47353,54.02728 -4.16189,71.97377 -7.41762,36.092 -27.10697,70.2169 -54.84213,95.0507 -23.53353,21.0717 -55.33343,36.5604 -87.5,42.6185 -15.99888,3.0131 -52.55034,3.3082 -67.5,0.5449 -35.7798,-6.6135 -62.21283,-18.545 -87.14455,-39.3359 -26.58313,-22.168 -48.67949,-56.3721 -56.81651,-87.94916 C 551.35799,841.38312 551.7223,852.05832 551.05204,688 550.55728,566.90017 550.16947,535.69736 549.1194,532.5 542.13279,511.22665 523.38555,497 502.33912,497 c -21.78166,0 -38.75895,12.06105 -46.45123,33 L 453.5,536.5 v 148 c 0,160.70258 -0.1082,157.12828 5.59297,184.75962 11.67527,56.58548 42.98032,110.96208 85.78795,149.01298 42.97742,38.2018 91.50035,60.408 150.61908,68.93 14.30843,2.0626 65.1582,1.75 79,-0.4857 60.38404,-9.7528 107.21616,-32.49 151.44386,-73.5266 40.02381,-37.136 69.17826,-89.2745 80.08924,-143.22788 5.7416,-28.39156 5.9467,-32.94117 5.9573,-132.11837 l 0.01,-90.65595 13.1303,-12.84405 c 7.2216,-7.06423 20.3394,-20.49405 29.1506,-29.84405 8.8113,-9.35 16.409,-17.15213 16.884,-17.33807 1.1723,-0.45894 1.0133,216.27884 -0.1767,240.83807 -2.3912,49.35315 -12.4131,89.1044 -32.9576,130.7247 -47.9274,97.0941 -135.15519,163.4609 -242.0306,184.1477 -26.4694,5.1234 -52.46531,6.8569 -81.5,5.4349 z M 922.19286,430.92754 c -30.9241,-4.01483 -56.325,-26.50277 -63.73686,-56.42754 -2.30163,-9.29262 -2.28738,-24.80447 0.0312,-34 6.75465,-26.78871 26.50643,-47.0951 53.20345,-54.69736 10.91158,-3.10719 27.56588,-3.07934 38.75273,0.0648 22.82368,6.41476 41.4102,22.99023 50.02282,44.61034 5.2256,13.11788 6.6191,26.6739 4.097,39.85568 -5.13195,26.82221 -23.91502,48.55604 -49.42155,57.18551 -5.70185,1.92907 -22.36791,4.75731 -25.64168,4.3514 -0.55,-0.0682 -3.83821,-0.49247 -7.30714,-0.94284 z"
       id="path3" />
  </g>
</svg>
